# xmcd
#
# Track frame offsets:
#	150
#	11359
#	22320
#	33870
#	45425
#	59346
#	70431
#	82089
#	95994
#	104221
#	114369
#	124326
#	134560
#	145950
#	156136
#	165120
#	176774
#	186913
#	199812
#	211070
#	222381
#	232728
#	245085
#	258468
#	268277
#	276828
#	286541
#	297374
#	308594
#	322512
#	334644
#	345451
#
# Disc length: 4764 seconds
# Revision: 0
# Processed by: cddbd v1.5.2PL0 Copyright (c) Steve Scherf et al.
# Submitted via: dBpowerAMP V12.0
#
DISCID=e3129a20
DTITLE=Various Artist - Hillbillies In Hell
DYEAR=2018
DGENRE=Country
TTITLE0=Doug Tubb - The World Is A Monster
TTITLE1=Johnny Horton - The Devil Made A Masterpiece
TTITLE2=Frank Dycus - The Visit
TTITLE3=Arkey Blue - Daddy's Sick Again
TTITLE4=Charlie Stewart - Mammoth Cave Secret
TTITLE5=Ben Wasson - Room 333
TTITLE6=Lonnie Glosson - Let Jesus Turn You On
TTITLE7=Selwyn Cox - Yodeling Heart
TTITLE8=The Kingsmen Quartet - Jesus Loved The Devil Out Of Me
TTITLE9=G.M. Farley , Foggy River Boys - There Ain't No Grave Gonna Hold My Body Down
TTITLE10=Bob Leers - The World's Gone Mad
TTITLE11=George Elliott - Stranger On The Bridge
TTITLE12=Duane Dee - When The Devil Rides The Wind
TTITLE13=The Knight Bros - Satan Must Get Along Without Me
TTITLE14=Zero Jones - Wrestlin' With Satan
TTITLE15=Wally Fowler And The All-Night Singers - You Can't Run Away From God
TTITLE16=Hank Williams, Jr. , Mike Curb Congregation - Jesus Loved The Devil Out Of Me
TTITLE17=The Lumberjack With The Northwood Singers - Hell Bound Train
TTITLE18=Johnny Doe - Devil Train
TTITLE19=Ben Wasson - Footsteps Through My Mind
TTITLE20=Bob Gallion - Six Pallbearers
TTITLE21=Rusty Adams - Little Rosa
TTITLE22=Bill Woods - The Story Of Susie
TTITLE23=Seymore Weed - God Please Protect America
TTITLE24=Doye O'Dell - If The Devil Wants To Talk
TTITLE25=Steve Davis - Cottage 3-0-12
TTITLE26=The Gospel Rhythm Boys - Matthew 24
TTITLE27=Jerry Jericho - Which Way You Going?
TTITLE28=Texas Bill Strength - Hillbilly Hades
TTITLE29=Alvis Barnett , Woodrow Dorrell - The Devil's Got Your Number
TTITLE30=The Kingsmen Quartet - I Went To An Old Camp Meeting With The Devil
TTITLE31=Sunshine Boys Quartet - Jesus Hits Like The Atom Bomb
EXTD=
EXTT0=
EXTT1=
EXTT2=
EXTT3=
EXTT4=
EXTT5=
EXTT6=
EXTT7=
EXTT8=
EXTT9=
EXTT10=
EXTT11=
EXTT12=
EXTT13=
EXTT14=
EXTT15=
EXTT16=
EXTT17=
EXTT18=
EXTT19=
EXTT20=
EXTT21=
EXTT22=
EXTT23=
EXTT24=
EXTT25=
EXTT26=
EXTT27=
EXTT28=
EXTT29=
EXTT30=
EXTT31=
PLAYORDER=
